*********** **** **** *** ******** *********** **** *** **********
*+* +*+*+* *+*+*+ *+* *+* *+* *+* *+* *+*+* *+* *+* 
+*+ +*+ +*+*+ +*+ +*+ +*+ +*+ +*+ *+*+*+ +*+ +*+ 
+$+ +$+ +*+ +$+ +$++*++$++* *$* +$+ +$+ +*+ +$+ +$++*++$ 
+$+ +$+ +$+ +$+ +$+ +$+ +$+$ +$+ +$+ +$+$+$ +$+ 
$+$ $+$ $+$ $+$ $+$ $+$ $+$ $+$ $+$ $+$+$ $+$ 
$$$$$$$$$$$ $$$ $$$ $$$ $$$ $$$$$$$$ $$$$$$$$$$$ $$$ $$$$ $$$$$$$$$$ 




Another Fine Release Brought to you from - IMAGiNE 


******************************************************************************************************************** 
Killers TS XViD - IMAGiNE
********************************************************************************************************************

Ripper ...........: IMAGiNE IMDB Rating.......:3.2/10 
Video Codec.......: XVID Release Date......:04/07/10
Audio Codec.......:MP3 Theatre Date......:04/06/10
Audio Bitrate.....:128 Runtime.......:1h 33mn
Subtitles.........:ENG WHEN NEEDED Language..........:ENGLISH
Resolution...... 720 x 288 IMDb URL..........:http://www.imdb.com/title/tt1103153/




Video
ID : 0
Format : MPEG-4 Visual
Format profile : Advanced Simple@L5
Format settings, BVOP : Yes
Format settings, QPel : No
Format settings, GMC : No warppoints
Format settings, Matrix : Default (MPEG)
Muxing mode : Packed bitstream
Codec ID : XVID
Codec ID/Hint : XviD
Duration : 1h 33mn
Bit rate : 1 972 Kbps
Width : 720 pixels
Height : 288 pixels
Display aspect ratio : 2.500
Frame rate : 25.000 fps
Resolution : 24 bits
Colorimetry : 4:2:0
Scan type : Progressive
Bits/(Pixel*Frame) : 0.380
Stream size : 1.28 GiB (93%)
Writing library : XviD 1.2.1 (UTC 2008-12-04)

Audio
ID : 1
Format : MPEG Audio
Format version : Version 1
Format profile : Layer 3
Codec ID : 55
Codec ID/Hint : MP3
Duration : 1h 33mn
Bit rate mode : Constant
Bit rate : 128 Kbps
Channel(s) : 2 channels
Sampling rate : 48.0 KHz
Resolution : 16 bits
Stream size : 85.4 MiB (6%)
Alignment : Split accross interleaves
Interleave, duration : 40 ms (1.00 video frame)
Interleave, preload duration : 500 ms



NOTES:

IMAGiNE bringing you another release.....Killers TS

Sources used .....The russian cam video,orcs video and orcs audio ....many thanks to all 
Right the quality.....the russian cam was nice but had major colouring issues ....looked a dirty yellowand was dark.Orcs cam would
have been pretty decent if not for that flicker ....however their audio was mint,so top stuff.
Work done....well firstly the russian cam is missing the ending so we used the last 20 secs off orcs video .....but for this we need to cut the
ending and resize the video and change the framerate to match the russian video.
The russian video we needed to do some major white balancing to even get it close to some natural colours.....still off in parts.Also used a smoother,sharpen,
rgb eq,contrast and brightness filters....
Got to say the black is slightly off due to us making it a touch brighter as some scenes were harder to see so .....win some lose some.
The audio now this we just need to sync to our encode.....pretty simple for once,but got to say the line is sweet,thanks to orc 

Anyway enjoy another copy of killers by us




Screenshots
 
http://postimg.com/image/18000/17409.jpg
 
http://postimg.com/image/18000/17410.jpg
 
http://postimg.com/image/18000/17412.jpg
